<?xml version="1.0" encoding="UTF-8"?>
<svg id="Camada_2" data-name="Camada 2" xmlns="http://www.w3.org/2000/svg" viewBox="0 0 263.82 26.7">
  <defs>
    <style>
      .cls-1 {
        fill: #0068ff;
      }

      .cls-2 {
        fill: #fff;
      }
    </style>
  </defs>
  <g id="Camada_3" data-name="Camada 3">
    <g>
      <g>
        <path class="cls-2" d="M8.46,13.24h6.78v6.31c-.84.79-1.84,1.41-3,1.87s-2.35.69-3.56.69c-1.53,0-2.96-.4-4.3-1.2-1.34-.8-2.41-1.87-3.19-3.22s-1.18-2.8-1.18-4.37.39-3.01,1.18-4.35c.79-1.34,1.85-2.41,3.19-3.21,1.34-.8,2.77-1.2,4.3-1.2,1.23,0,2.43.23,3.59.68s2.15,1.07,2.97,1.86l-.86.86c-.72-.69-1.59-1.23-2.59-1.63-1-.39-2.04-.59-3.11-.59-1.32,0-2.54.35-3.69,1.04-1.14.69-2.05,1.61-2.73,2.77-.67,1.16-1.01,2.41-1.01,3.76s.34,2.61,1.01,3.77c.67,1.17,1.58,2.1,2.71,2.79,1.13.69,2.37,1.04,3.7,1.04.97,0,1.92-.16,2.85-.49.93-.33,1.76-.79,2.48-1.38v-4.61h-5.55v-1.21Z"/>
        <path class="cls-2" d="M31.55,12.86c-.52.8-1.23,1.42-2.13,1.87-.9.45-1.92.68-3.06.68l4.49,6.41h-1.46l-4.49-6.41h-4.39v6.41h-1.23V4.88h7.05c1.13,0,2.16.22,3.07.67.91.44,1.63,1.07,2.15,1.86.52.8.78,1.71.78,2.73s-.26,1.93-.78,2.73ZM28.69,13.7c.75-.34,1.34-.81,1.76-1.43.43-.62.64-1.33.64-2.13s-.21-1.49-.64-2.11c-.43-.62-1.02-1.09-1.76-1.43-.75-.34-1.61-.51-2.58-.51h-5.6v8.12h5.6c.97,0,1.83-.17,2.58-.51Z"/>
        <path class="cls-2" d="M38.35,21.22c-1.02-.6-1.82-1.43-2.39-2.49-.58-1.06-.86-2.27-.86-3.61V4.88h1.23v10.24c0,1.12.23,2.12.7,3.01.47.89,1.12,1.58,1.96,2.07.84.49,1.78.74,2.84.74s2.02-.25,2.85-.74c.83-.49,1.48-1.18,1.95-2.07.47-.89.7-1.89.7-3.01V4.88h1.23v10.24c0,1.35-.29,2.55-.86,3.61-.58,1.06-1.37,1.89-2.39,2.49-1.02.6-2.18.9-3.48.9s-2.46-.3-3.48-.9Z"/>
        <path class="cls-2" d="M52.97,4.88h7.05c1.13,0,2.16.22,3.07.67.91.44,1.63,1.07,2.15,1.86.52.8.78,1.71.78,2.73s-.26,1.93-.78,2.73c-.52.8-1.23,1.42-2.15,1.87s-1.94.68-3.07.68h-5.82v6.41h-1.23V4.88ZM59.8,14.2c.97,0,1.83-.17,2.58-.51.75-.34,1.34-.81,1.76-1.43.43-.62.64-1.33.64-2.13s-.21-1.49-.64-2.11c-.43-.62-1.02-1.09-1.76-1.43-.75-.34-1.61-.51-2.58-.51h-5.6v8.12h5.6Z"/>
        <path class="cls-2" d="M72.14,20.93c-1.34-.8-2.41-1.87-3.19-3.22s-1.18-2.8-1.18-4.37.39-3.01,1.18-4.35c.79-1.34,1.85-2.41,3.19-3.21,1.34-.8,2.78-1.2,4.3-1.2s2.98.4,4.3,1.2,2.38,1.87,3.17,3.21c.79,1.34,1.18,2.79,1.18,4.35s-.39,3.02-1.18,4.37-1.85,2.42-3.17,3.22-2.76,1.2-4.3,1.2-2.96-.4-4.3-1.2ZM80.14,19.9c1.13-.69,2.04-1.62,2.71-2.79.67-1.17,1.01-2.43,1.01-3.77s-.34-2.6-1.01-3.76c-.67-1.16-1.58-2.08-2.73-2.77-1.14-.69-2.37-1.04-3.69-1.04s-2.54.35-3.69,1.04c-1.14.69-2.05,1.61-2.73,2.77-.67,1.16-1.01,2.41-1.01,3.76s.34,2.61,1.01,3.77c.67,1.17,1.58,2.1,2.71,2.79,1.13.69,2.37,1.04,3.7,1.04s2.57-.35,3.7-1.04Z"/>
      </g>
      <g>
        <path class="cls-2" d="M142.98,9.15v2.39h8.07v4.27h-8.07v6.02h-4.79V4.88h13.64v4.27h-8.86Z"/>
        <path class="cls-2" d="M154.33,4.88h4.79v16.95h-4.79V4.88Z"/>
        <path class="cls-2" d="M166.17,20.93c-1.41-.8-2.54-1.87-3.38-3.22-.84-1.35-1.26-2.8-1.26-4.37s.42-3.01,1.26-4.35c.84-1.34,1.96-2.41,3.38-3.21,1.41-.8,2.94-1.2,4.59-1.2s3.17.4,4.59,1.2c1.41.8,2.54,1.87,3.38,3.21.84,1.34,1.26,2.79,1.26,4.35s-.42,3.02-1.26,4.37c-.84,1.35-1.97,2.42-3.38,3.22-1.41.8-2.94,1.2-4.59,1.2s-3.17-.4-4.59-1.2ZM172.88,17.18c.66-.4,1.18-.95,1.58-1.63.39-.68.59-1.42.59-2.21s-.2-1.52-.59-2.2c-.39-.67-.92-1.21-1.58-1.62-.66-.4-1.37-.6-2.12-.6s-1.46.2-2.12.6c-.66.4-1.18.94-1.58,1.62-.39.67-.59,1.41-.59,2.2s.2,1.53.59,2.21c.39.68.92,1.23,1.58,1.63.66.4,1.36.6,2.12.6s1.46-.2,2.12-.6Z"/>
        <path class="cls-2" d="M187.09,9.15v2.39h8.07v4.27h-8.07v6.02h-4.79V4.88h13.64v4.27h-8.86Z"/>
        <path class="cls-2" d="M201.73,20.93c-1.41-.8-2.54-1.87-3.38-3.22-.84-1.35-1.26-2.8-1.26-4.37s.42-3.01,1.26-4.35c.84-1.34,1.96-2.41,3.38-3.21,1.41-.8,2.94-1.2,4.59-1.2s3.17.4,4.59,1.2c1.41.8,2.54,1.87,3.38,3.21.84,1.34,1.26,2.79,1.26,4.35s-.42,3.02-1.26,4.37c-.84,1.35-1.97,2.42-3.38,3.22-1.41.8-2.94,1.2-4.59,1.2s-3.17-.4-4.59-1.2ZM208.44,17.18c.66-.4,1.18-.95,1.58-1.63.39-.68.59-1.42.59-2.21s-.2-1.52-.59-2.2c-.39-.67-.92-1.21-1.58-1.62-.66-.4-1.37-.6-2.12-.6s-1.46.2-2.12.6c-.66.4-1.18.94-1.58,1.62-.39.67-.59,1.41-.59,2.2s.2,1.53.59,2.21c.39.68.92,1.23,1.58,1.63.66.4,1.36.6,2.12.6s1.46-.2,2.12-.6Z"/>
        <path class="cls-2" d="M227.39,21.83l-3.58-5.11h-1.16v5.11h-4.79V4.88h8.12c1.25,0,2.37.25,3.35.75.99.5,1.76,1.2,2.31,2.1.55.9.83,1.92.83,3.07,0,1.23-.32,2.32-.96,3.27-.64.95-1.52,1.65-2.64,2.11l3.97,5.65h-5.45ZM222.65,12.38h2.94c.56,0,1.02-.15,1.39-.44s.55-.67.55-1.13-.18-.84-.55-1.13-.83-.44-1.39-.44h-2.94v3.16Z"/>
        <path class="cls-2" d="M238.75,9.15h-5.01v-4.27h14.8v4.27h-5.01v12.68h-4.79v-12.68Z"/>
        <path class="cls-2" d="M254.96,9.15v1.9h8.07v4.27h-8.07v2.24h8.86v4.27h-13.64V4.88h13.64v4.27h-8.86Z"/>
      </g>
      <g>
        <path class="cls-1" d="M101.53,5.66h0c1.77-.11,3.27.16,4.71.75,1.12.46,2.33.04,2.71-.94.44-1.11,0-2.29-1.1-2.72-3.48-1.38-6.97-1.58-10.48-.08-1.81.77-2.1,2.3-.71,3.68.54.54,13.09,13.06,13.51,13.47.85.84,2.05.82,2.85,0,.75-.76.75-1.94-.05-2.74-2.84-2.85-10.39-10.38-11.44-11.44Z"/>
        <path class="cls-1" d="M94.69,6.68c-.77-.77-2.03-.77-2.8,0h0c-.77.77-.77,2.03,0,2.8l15.29,15.29c.77.77,2.03.77,2.8,0h0c.77-.77.77-2.03,0-2.8l-15.29-15.29Z"/>
        <path class="cls-1" d="M92.54,12.3c-.64-.64-1.68-.64-2.32,0h0c-.64.64-.64,1.68,0,2.32l11.61,11.61c.64.64,1.68.64,2.32,0h0c.64-.64.64-1.68,0-2.32l-11.61-11.61Z"/>
        <path class="cls-1" d="M93.16,19.14c-.5-.5-1.3-.5-1.79,0h0c-.5.5-.5,1.3,0,1.79l4.47,4.47c.5.5,1.3.5,1.79,0,.5-.5.5-1.3,0-1.79l-4.47-4.47Z"/>
        <path class="cls-1" d="M113.12,6.87c-.85-.84-2.05-.82-2.85,0-.75.76-.75,1.94.05,2.74,2.84,2.85,10.39,10.38,11.44,11.44h0c-1.77.11-3.27-.16-4.71-.75-1.12-.46-2.33-.04-2.71.94-.44,1.11,0,2.29,1.1,2.72,3.48,1.38,6.97,1.58,10.48.08,1.81-.77,2.1-2.3.71-3.68-.54-.54-13.09-13.06-13.51-13.47Z"/>
        <path class="cls-1" d="M116.11,1.93c-.77-.77-2.03-.77-2.8,0h0c-.77.77-.77,2.03,0,2.8l15.29,15.29c.77.77,2.03.77,2.8,0h0c.77-.77.77-2.03,0-2.8l-15.29-15.29Z"/>
        <path class="cls-1" d="M133.07,12.09L121.46.48c-.64-.64-1.68-.64-2.32,0h0c-.64.64-.64,1.68,0,2.32l11.61,11.61c.64.64,1.68.64,2.32,0h0c.64-.64.64-1.68,0-2.32Z"/>
        <path class="cls-1" d="M130.14,7.56c.5.5,1.3.5,1.79,0h0c.5-.5.5-1.3,0-1.79l-4.47-4.47c-.5-.5-1.3-.5-1.79,0h0c-.5.5-.5,1.3,0,1.79l4.47,4.47Z"/>
      </g>
    </g>
  </g>
</svg>